<svg width="537" height="403" viewBox="0 0 537 403" fill="none" xmlns="http://www.w3.org/2000/svg">
<g clip-path="url(#clip0_129_1092)">
<path d="M373.099 40.4182C384.261 40.4182 393.31 31.3703 393.31 20.2091C393.31 9.04793 384.261 0 373.099 0C361.937 0 352.889 9.04793 352.889 20.2091C352.889 31.3703 361.937 40.4182 373.099 40.4182Z" fill="#FDE68A"/>
<path d="M427.275 385.87L419.996 386.02L415.939 357.394L426.681 357.172L427.275 385.87Z" fill="#FFB6B6"/>
<path d="M404.304 398.12C404.343 399.916 405.828 401.342 407.625 401.307L422.097 401.007L424.48 395.799L425.56 400.932L431.021 400.822L429.106 382.459L427.203 382.388L419.441 382.08L416.936 381.985L417.044 387.194L405.652 395.415C404.786 396.04 404.282 397.051 404.304 398.12V398.12Z" fill="#2F2E41"/>
<path d="M476.26 385.87L468.98 386.02L464.923 357.394L475.665 357.172L476.26 385.87Z" fill="#FFB6B6"/>
<path d="M453.288 398.12C453.327 399.916 454.813 401.342 456.609 401.307L471.081 401.007L473.464 395.799L474.544 400.932L480.005 400.822L478.09 382.459L476.187 382.388L468.425 382.08L465.92 381.985L466.028 387.194L454.636 395.415C453.77 396.04 453.266 397.051 453.288 398.12V398.12Z" fill="#2F2E41"/>
<path d="M434.612 165.779L474.689 164.666L472.463 168.006L477.534 173.015C477.534 173.015 495.842 198.062 490.275 220.883C484.709 243.704 487.843 378.618 487.843 378.618L455.207 375.062L458.825 238.973L432.107 290.18L439.876 373.195L412.068 373.114L403.162 283.501L434.612 165.779V165.779Z" fill="#2F2E41"/>
<path d="M266.958 58.1124C267.109 58.484 267.63 58.484 267.78 58.1123C268.832 55.5192 270.33 52.6152 271.959 50.3959C272.22 50.0406 271.86 49.5658 271.446 49.7158L267.954 50.979V29.3644H266.785V50.979L263.292 49.7156C262.877 49.5657 262.518 50.0405 262.779 50.3958C264.408 52.6151 265.905 55.5192 266.958 58.1124H266.958Z" fill="white"/>
<path d="M289.857 80.3675C289.744 80.7524 290.152 81.0762 290.501 80.8789C292.937 79.5024 295.916 78.1596 298.572 77.4348C298.997 77.3187 299.011 76.7233 298.593 76.583L295.073 75.4007L308.516 58.4745L307.601 57.7476L294.158 74.6738L292.208 71.5122C291.977 71.137 291.4 71.2852 291.383 71.7257C291.279 74.4766 290.645 77.6822 289.857 80.3675V80.3675Z" fill="white"/>
<path d="M375.236 119.86L396.822 117.372L399.963 129.504L377.048 131.322C376.561 131.827 375.992 132.271 375.347 132.63C371.836 134.58 367.408 133.315 365.457 129.804C363.506 126.293 364.771 121.866 368.283 119.915C370.522 118.671 373.132 118.74 375.236 119.86V119.86Z" fill="#FECACA"/>
<path d="M478.591 91.8774L470.143 79.058C468.607 80.2773 467.259 81.5033 466.242 82.5879L464.49 83.7937L458.832 88.8527L442.811 103.154L437.483 107.917L431.534 108.961L418.404 111.271L398.52 116.622L383.878 117.57C383.871 117.866 383.871 118.311 383.871 118.863C383.865 121.74 383.932 127.56 384.498 130.733C384.693 131.838 384.949 132.619 385.286 132.855C385.394 132.929 396.607 129.428 397.173 129.421C401.733 129.414 409.357 130.665 424.737 128.665C433.872 127.466 441.915 126.374 445.297 125.91L445.371 125.896L447.817 124.71L474.663 111.709L482.767 107.782C482.094 102.352 480.699 96.997 478.591 91.8774V91.8774Z" fill="#FDE68A"/>
<path d="M15.2858 18.8221C6.84367 18.8221 0 25.6653 0 34.1069V292.993H1.34736V125.041C1.34736 67.1219 48.3028 20.1694 106.226 20.1694L374.137 19.9244L373.892 18.8221H15.2858Z" fill="#F7F8F9"/>
<path d="M86.033 61.8374C89.1794 61.8374 91.73 59.2301 91.73 56.0138C91.73 52.7975 89.1794 50.1901 86.033 50.1901C82.8866 50.1901 80.3359 52.7975 80.3359 56.0138C80.3359 59.2301 82.8866 61.8374 86.033 61.8374Z" fill="white"/>
<path d="M105.714 61.8374C108.86 61.8374 111.411 59.2301 111.411 56.0138C111.411 52.7975 108.86 50.1901 105.714 50.1901C102.567 50.1901 100.017 52.7975 100.017 56.0138C100.017 59.2301 102.567 61.8374 105.714 61.8374Z" fill="white"/>
<path d="M125.394 61.8374C128.541 61.8374 131.091 59.2301 131.091 56.0138C131.091 52.7975 128.541 50.1901 125.394 50.1901C122.248 50.1901 119.697 52.7975 119.697 56.0138C119.697 59.2301 122.248 61.8374 125.394 61.8374Z" fill="white"/>
<path d="M224.681 124.623C216.239 124.623 209.395 131.466 209.395 139.908L209.395 250.593H210.743V230.842C210.743 172.923 257.698 125.97 315.621 125.97L413.091 125.725L412.846 124.623L224.681 124.623V124.623Z" fill="#E7EAEE"/>
<path d="M281.279 193.315C280.536 193.315 279.932 193.92 279.932 194.663V215.545C279.932 216.288 280.536 216.893 281.279 216.893C282.023 216.893 282.627 216.288 282.627 215.545V194.663C282.627 193.92 282.023 193.315 281.279 193.315Z" fill="white"/>
<path d="M294.484 213.438C299.122 213.438 302.881 209.758 302.881 205.219C302.881 200.68 299.122 197 294.484 197C289.847 197 286.088 200.68 286.088 205.219C286.088 209.758 289.847 213.438 294.484 213.438Z" fill="#FDE68A"/>
<path d="M361.794 202.407L316.6 202.407C315.05 202.407 313.788 201.146 313.788 199.595C313.788 198.045 315.05 196.784 316.6 196.784L361.794 196.784C363.344 196.784 364.606 198.045 364.606 199.595C364.606 201.146 363.344 202.407 361.794 202.407Z" fill="#E7EAEE"/>
<path d="M397.063 211.924L316.6 211.924C315.049 211.924 313.788 210.662 313.788 209.112C313.788 207.562 315.049 206.3 316.6 206.3L397.063 206.3C398.613 206.3 399.875 207.562 399.875 209.112C399.875 210.662 398.613 211.924 397.063 211.924Z" fill="#E7EAEE"/>
<path d="M285.442 157.494C288.588 157.494 291.139 154.887 291.139 151.67C291.139 148.454 288.588 145.847 285.442 145.847C282.296 145.847 279.745 148.454 279.745 151.67C279.745 154.887 282.296 157.494 285.442 157.494Z" fill="#E7EAEE"/>
<path d="M305.123 157.494C308.269 157.494 310.82 154.887 310.82 151.67C310.82 148.454 308.269 145.847 305.123 145.847C301.976 145.847 299.426 148.454 299.426 151.67C299.426 154.887 301.976 157.494 305.123 157.494Z" fill="#E7EAEE"/>
<path d="M324.803 157.494C327.95 157.494 330.5 154.887 330.5 151.67C330.5 148.454 327.95 145.847 324.803 145.847C321.657 145.847 319.106 148.454 319.106 151.67C319.106 154.887 321.657 157.494 324.803 157.494Z" fill="#E7EAEE"/>
<path d="M60.8696 114.118C60.1265 114.118 59.5222 114.722 59.5222 115.465V136.348C59.5222 137.091 60.1265 137.695 60.8696 137.695C61.6127 137.695 62.2169 137.091 62.2169 136.348V115.465C62.2169 114.722 61.6127 114.118 60.8696 114.118Z" fill="white"/>
<path d="M74.0745 134.24C78.7116 134.24 82.4707 130.561 82.4707 126.021C82.4707 121.482 78.7116 117.803 74.0745 117.803C69.4374 117.803 65.6782 121.482 65.6782 126.021C65.6782 130.561 69.4374 134.24 74.0745 134.24Z" fill="#FDE68A"/>
<path d="M141.384 123.21H96.1898C94.6394 123.21 93.3779 121.948 93.3779 120.398C93.3779 118.848 94.6394 117.586 96.1898 117.586H141.384C142.934 117.586 144.195 118.848 144.195 120.398C144.195 121.948 142.934 123.21 141.384 123.21Z" fill="#E7EAEE"/>
<path d="M176.653 132.726H96.1898C94.6394 132.726 93.3779 131.465 93.3779 129.914C93.3779 128.364 94.6394 127.103 96.1898 127.103H176.653C178.203 127.103 179.465 128.364 179.465 129.914C179.465 131.465 178.203 132.726 176.653 132.726Z" fill="#E7EAEE"/>
<path d="M60.8696 172.051C60.1265 172.051 59.5222 172.655 59.5222 173.398V194.281C59.5222 195.024 60.1265 195.628 60.8696 195.628C61.6127 195.628 62.2169 195.024 62.2169 194.281V173.398C62.2169 172.655 61.6127 172.051 60.8696 172.051Z" fill="white"/>
<path d="M74.0745 192.173C78.7116 192.173 82.4707 188.493 82.4707 183.954C82.4707 179.415 78.7116 175.735 74.0745 175.735C69.4374 175.735 65.6782 179.415 65.6782 183.954C65.6782 188.493 69.4374 192.173 74.0745 192.173Z" fill="#FDE68A"/>
<path d="M141.384 181.142H96.1898C94.6394 181.142 93.3779 179.881 93.3779 178.331C93.3779 176.78 94.6394 175.519 96.1898 175.519H141.384C142.934 175.519 144.195 176.78 144.195 178.331C144.195 179.881 142.934 181.142 141.384 181.142Z" fill="#E7EAEE"/>
<path d="M176.653 190.659H96.1898C94.6394 190.659 93.3779 189.398 93.3779 187.847C93.3779 186.297 94.6394 185.036 96.1898 185.036H176.653C178.203 185.036 179.465 186.297 179.465 187.847C179.465 189.398 178.203 190.659 176.653 190.659Z" fill="#E7EAEE"/>
<path d="M60.8696 229.984C60.1265 229.984 59.5222 230.588 59.5222 231.331V252.214C59.5222 252.957 60.1265 253.561 60.8696 253.561C61.6127 253.561 62.2169 252.957 62.2169 252.214V231.331C62.2169 230.588 61.6127 229.984 60.8696 229.984Z" fill="white"/>
<path d="M74.0745 250.106C78.7116 250.106 82.4707 246.426 82.4707 241.887C82.4707 237.348 78.7116 233.668 74.0745 233.668C69.4374 233.668 65.6782 237.348 65.6782 241.887C65.6782 246.426 69.4374 250.106 74.0745 250.106Z" fill="#FDE68A"/>
<path d="M141.384 239.075H96.1898C94.6394 239.075 93.3779 237.814 93.3779 236.264C93.3779 234.713 94.6394 233.452 96.1898 233.452H141.384C142.934 233.452 144.195 234.713 144.195 236.264C144.195 237.814 142.934 239.075 141.384 239.075Z" fill="#E7EAEE"/>
<path d="M176.653 248.592H96.1898C94.6394 248.592 93.3779 247.33 93.3779 245.78C93.3779 244.23 94.6394 242.968 96.1898 242.968H176.653C178.203 242.968 179.465 244.23 179.465 245.78C179.465 247.33 178.203 248.592 176.653 248.592Z" fill="#E7EAEE"/>
<path d="M485.425 187.354C484.591 193.698 441.4 178.677 436.246 175.902C426.606 170.721 436.692 176.035 436.692 176.035L435.572 144.241L434.404 125.297C434.404 125.297 433.751 120.264 432.383 113.845C432.073 112.403 431.743 110.732 431.534 108.961C430.941 103.848 431.393 97.9064 436.425 94.3092L453.974 68.1451L462.618 67.6399L470.143 79.058L478.591 91.8774C480.699 96.997 482.094 102.352 482.767 107.782C483.084 110.322 483.246 112.881 483.246 115.448C483.246 119.968 482.754 124.502 481.757 128.961L476.468 143.788C476.468 143.788 475.803 146.297 478.126 147.702C482.839 150.552 473.298 158.387 479.136 168.093C479.136 168.093 478.591 172.552 481.191 172.943C483.791 173.34 485.776 184.682 485.425 187.354V187.354Z" fill="#FDE68A"/>
<path d="M401.515 202.596L414.331 185.051L425.376 190.973L411.166 209.041C411.206 209.742 411.147 210.46 410.973 211.178C410.024 215.081 406.09 217.475 402.187 216.526C398.284 215.578 395.89 211.645 396.838 207.742C397.444 205.253 399.264 203.382 401.515 202.596Z" fill="#FECACA"/>
<path d="M455.641 91.9147C452.717 89.8116 449.293 88.324 445.525 87.6639C440.383 86.7669 437.499 94.1656 436.365 101.382C435.844 104.726 435.69 108.033 435.869 110.447L435.567 112.559L435.389 123.49L434.971 148.761L422.099 167.818L416.709 180.617L405.696 194.694C405.911 194.901 406.239 195.203 406.644 195.581C408.757 197.535 413.068 201.431 415.787 203.169C416.731 203.769 417.475 204.109 417.877 204.026C418.003 203.998 425.758 196.529 426.141 196.111C428.713 193.311 429.219 189.553 436.997 178.632C444.081 168.692 450.988 158.807 453.484 155.23L453.53 155.166L464.743 118.186L465.763 114.834C466.85 105.654 462.714 96.9946 455.641 91.9147V91.9147Z" fill="#FDE68A"/>
<path d="M449.283 92.4686C449.262 92.4606 449.244 92.4509 449.223 92.4428C449.05 92.4572 448.878 92.4676 448.71 92.4686H449.283Z" fill="#2F2E41"/>
<path d="M454.312 63.4291C465.134 63.4291 473.908 54.6562 473.908 43.8342C473.908 33.0123 465.134 24.2394 454.312 24.2394C443.489 24.2394 434.716 33.0123 434.716 43.8342C434.716 54.6562 443.489 63.4291 454.312 63.4291Z" fill="#FFB6B6"/>
<path d="M427.781 38.3878C426.458 28.8886 430.315 25.9825 436.35 25.1216C448.29 18.9169 451.025 20.4766 454.81 21.15L456.201 20.8508C460.47 19.9323 462.019 20.3242 465.815 21.7593C473.823 24.7786 479.084 32.4349 479.666 40.9723C480.067 46.8578 478.222 47.774 481.634 52.5537C484.488 56.544 482.305 62.1446 477.515 63.1752L473.056 69.9155C471.971 68.5433 471.103 67.1053 470.119 65.3034C469.731 66.9112 469.688 68.7521 469.891 70.5966C465.452 72.8075 460.606 73.7223 455.465 73.7001C454.639 72.5983 453.898 71.3714 453.996 69.9892C453.71 71.3742 453.361 72.754 453.301 74.1658C450.068 72.0837 447.395 72.6954 445.261 75.8955C439.871 71.4286 439.449 61.1935 445.856 58.6297C451.276 56.4607 442.726 41.2766 436.896 40.967C436.858 40.965 435.306 46.8357 435.251 46.7253C434.428 45.0801 434.804 44.1783 433.821 42.3764C433.497 43.7318 433.41 45.2498 433.517 46.795C432.128 46.4916 430.721 46.0478 429.302 45.4562C427.655 43.2203 427.019 40.8778 427.781 38.3878V38.3878Z" fill="#2F2E41"/>
<path d="M500.447 391.324C501.839 391.411 502.608 389.682 501.555 388.674L501.45 388.258C501.464 388.224 501.478 388.191 501.492 388.158C502.899 384.802 507.669 384.825 509.065 388.186C510.303 391.169 511.88 394.157 512.269 397.311C512.443 398.703 512.364 400.122 512.056 401.488C514.958 395.149 516.485 388.226 516.485 381.265C516.485 379.516 516.389 377.767 516.194 376.022C516.033 374.595 515.811 373.176 515.523 371.771C513.97 364.174 510.607 356.939 505.755 350.895C503.423 349.62 501.478 347.628 500.303 345.239C499.881 344.377 499.55 343.451 499.394 342.507C499.659 342.541 500.394 338.499 500.194 338.251C500.564 337.69 501.226 337.411 501.63 336.863C503.639 334.14 506.407 334.615 507.852 338.317C510.939 339.875 510.969 342.458 509.075 344.943C507.87 346.524 507.704 348.663 506.647 350.356C506.756 350.495 506.869 350.63 506.978 350.769C508.973 353.327 510.698 356.077 512.152 358.966C511.741 355.756 512.348 351.888 513.383 349.394C514.56 346.553 516.768 344.161 518.712 341.705C521.047 338.755 525.835 340.042 526.246 343.782C526.25 343.818 526.254 343.854 526.258 343.89C525.969 344.053 525.686 344.226 525.41 344.409C523.834 345.451 524.379 347.894 526.246 348.182L526.288 348.189C526.184 349.229 526.005 350.26 525.744 351.274C528.238 360.917 522.854 364.43 515.167 364.588C514.997 364.675 514.832 364.762 514.662 364.844C515.441 367.037 516.063 369.287 516.524 371.566C516.938 373.581 517.225 375.617 517.386 377.662C517.586 380.242 517.569 382.835 517.351 385.411L517.364 385.32C517.917 382.483 519.457 379.833 521.693 377.997C525.025 375.26 529.732 374.253 533.327 372.053C535.057 370.994 537.274 372.362 536.972 374.368L536.957 374.464C536.422 374.682 535.9 374.934 535.395 375.217C535.107 375.38 534.824 375.553 534.547 375.736C532.971 376.778 533.516 379.221 535.384 379.509L535.426 379.516C535.456 379.52 535.482 379.524 535.513 379.529C534.595 381.708 533.316 383.732 531.714 385.476C530.155 393.895 523.458 394.694 516.294 392.242H516.289C515.506 395.653 514.362 398.986 512.891 402.162H500.751C500.708 402.027 500.668 401.888 500.629 401.753C501.752 401.823 502.883 401.758 503.988 401.553C503.088 400.448 502.187 399.334 501.286 398.229C501.265 398.207 501.247 398.185 501.23 398.164C500.773 397.598 500.312 397.037 499.855 396.471L499.855 396.471C499.826 394.734 500.034 393.004 500.447 391.324L500.447 391.324V391.324Z" fill="#F2F2F2"/>
<path d="M364.666 402.198C364.666 402.643 365.023 403 365.468 403H536.104C536.548 403 536.906 402.643 536.906 402.198C536.906 401.754 536.548 401.397 536.104 401.397H365.468C365.023 401.397 364.666 401.754 364.666 402.198Z" fill="#CCCCCC"/>
<path d="M278.921 94.7916H256.203C254.793 94.7916 253.646 93.6442 253.646 92.2338C250.642 83.4552 250.701 74.8534 253.646 66.418C253.646 65.0076 254.793 63.8602 256.203 63.8602H278.921C280.331 63.8602 281.479 65.0076 281.479 66.418V92.2338C281.479 93.6442 280.331 94.7916 278.921 94.7916Z" fill="#D0D5DD"/>
<path d="M261.071 64.6223C257.391 64.6223 254.408 67.6053 254.408 71.2851V91.6861C254.408 92.9803 255.457 94.0295 256.751 94.0295H269.314C275.612 94.0295 280.717 88.9247 280.717 82.6276V66.9657C280.717 65.6715 279.667 64.6223 278.373 64.6223H261.071V64.6223Z" fill="white"/>
<path d="M272.853 72.1245H262.217C261.949 72.1245 261.73 71.9064 261.73 71.6382C261.73 71.3701 261.949 71.152 262.217 71.152H272.853C273.121 71.152 273.339 71.3701 273.339 71.6382C273.339 71.9064 273.121 72.1245 272.853 72.1245Z" fill="#D0D5DD"/>
<path d="M272.853 82.4935H262.217C261.949 82.4935 261.73 82.2754 261.73 82.0072C261.73 81.7391 261.949 81.5211 262.217 81.5211H272.853C273.121 81.5211 273.339 81.7391 273.339 82.0072C273.339 82.2754 273.121 82.4935 272.853 82.4935Z" fill="#D0D5DD"/>
<path d="M278.56 77.3124H256.51C256.241 77.3124 256.023 77.0942 256.023 76.8261C256.023 76.558 256.241 76.3399 256.51 76.3399H278.56C278.828 76.3399 279.046 76.558 279.046 76.8261C279.046 77.0942 278.828 77.3124 278.56 77.3124Z" fill="#D0D5DD"/>
<path d="M278.82 86.7095H269.619C269.351 86.7095 269.133 86.4914 269.133 86.2233C269.133 85.9551 269.351 85.7371 269.619 85.7371H278.82C279.088 85.7371 279.306 85.9551 279.306 86.2233C279.306 86.4914 279.088 86.7095 278.82 86.7095Z" fill="#D0D5DD"/>
</g>
<defs>
<clipPath id="clip0_129_1092">
<rect width="537" height="403" fill="white"/>
</clipPath>
</defs>
</svg>
