<svg width="274" height="206" viewBox="0 0 274 206" fill="none" xmlns="http://www.w3.org/2000/svg">
<g clip-path="url(#clip0_124_2276)">
<path d="M0 125.008C0 125.255 0.198489 125.453 0.445661 125.453H273.554C273.802 125.453 274 125.255 274 125.008C274 124.761 273.802 124.563 273.554 124.563H0.445661C0.198489 124.563 0 124.761 0 125.008Z" fill="#323A46"/>
<path d="M174.879 30.5309L176.312 48.8447L197.08 40.1786L185.365 21.5519L174.879 30.5309Z" fill="#92400E"/>
<path d="M174.257 36.1103C182.807 36.1103 189.738 29.186 189.738 20.6445C189.738 12.103 182.807 5.17871 174.257 5.17871C165.707 5.17871 158.776 12.103 158.776 20.6445C158.776 29.186 165.707 36.1103 174.257 36.1103Z" fill="#92400E"/>
<path d="M145.295 164.842L147.916 188.332L129.566 185.793L135.558 164.094L145.295 164.842Z" fill="#92400E"/>
<path d="M216.822 168.209L219.443 191.699L201.093 189.16L207.085 167.461L216.822 168.209Z" fill="#92400E"/>
<path d="M173.194 97.3123C172.943 97.3123 152.917 98.3168 139.686 98.9819C133.424 99.2967 128.657 104.712 129.142 110.957L133.873 171.763L147.354 172.137L147.683 123.127L174.317 124.623L173.194 97.3123Z" fill="#191D23"/>
<path d="M231.988 96.938C231.988 96.938 235.359 122.753 232.737 125.372C230.116 127.99 147.916 123.314 147.916 123.314C147.916 123.314 165.949 97.2983 169.197 96.557C172.445 95.8157 224.124 93.1968 224.124 93.1968L231.988 96.938Z" fill="#191D23"/>
<path d="M125.5 64.4368C122.37 60.063 122.091 54.9041 124.878 52.9143C127.664 50.9245 132.46 52.8574 135.591 57.2331C136.865 58.9639 137.707 60.9745 138.044 63.0967L151.073 81.796L143.658 86.9246L130.261 68.6544C128.36 67.6486 126.727 66.2024 125.5 64.4368V64.4368Z" fill="#92400E"/>
<path d="M174.13 42.1287L193.229 34.2721L229.18 89.6426C229.18 89.6426 204.089 95.2545 195.476 96.3769C186.863 97.4993 177.126 93.0097 177.126 93.0097L174.13 42.1287Z" fill="#FBBF24"/>
<path d="M197.348 51.4819L190.42 29.8916L199.408 36.7039C199.408 36.7039 224.873 53.5396 224.873 60.6479C224.873 67.7563 232.737 89.4556 232.737 89.4556C232.737 89.4556 241.537 96.751 238.542 103.485C235.546 110.22 242.474 109.284 243.223 114.148C243.972 119.011 232.55 125.559 232.55 125.559C232.55 125.559 229.741 98.0604 220.754 98.0604C211.766 98.0604 197.348 51.4819 197.348 51.4819Z" fill="#323A46"/>
<path d="M175.472 41.5767L166.079 45.3088C166.079 45.3088 167.577 71.4976 169.075 73.7423C170.572 75.9871 175.815 87.9591 175.815 87.9591V91.8609C175.815 91.8609 165.33 95.0674 165.704 96.9381C166.079 98.8087 190.42 104.046 190.42 104.046C190.42 104.046 185.552 89.0814 182.556 84.2178C179.56 79.3542 175.472 41.5767 175.472 41.5767Z" fill="#323A46"/>
<path d="M169.449 45.3088C169.449 45.3088 158.589 43.8123 156.717 56.5326C154.844 69.2528 156.034 70.9364 156.034 70.9364L152.972 78.2318L142.861 67.0081L133.124 73.3682C133.124 73.3682 150.725 101.802 157.84 101.053C164.955 100.305 175.441 79.7283 175.441 79.7283L169.449 45.3088Z" fill="#323A46"/>
<path d="M223.689 101.068L218.132 179.62L203.715 179.059C203.715 179.059 200.531 104.795 200.531 103.672C200.531 102.55 202.029 96.1898 211.391 95.8157C220.754 95.4416 223.689 101.068 223.689 101.068Z" fill="#191D23"/>
<path d="M202.778 181.116C202.778 181.116 210.268 178.871 211.391 180.368C212.515 181.864 218.881 182.613 218.881 182.613L220.754 200.945C220.754 200.945 215.511 204.686 214.762 205.434C214.013 206.183 194.165 206.931 193.791 202.441C193.416 197.952 199.033 192.34 199.033 192.34L202.778 181.116Z" fill="#191D23"/>
<path d="M147.729 175.879C147.729 175.879 149.976 174.008 150.725 179.246C151.474 184.483 154.095 193.088 150.35 194.211C146.605 195.333 109.157 195.707 109.157 192.34V188.973L112.527 186.354L119.269 185.281C119.269 185.281 132.375 173.26 133.873 173.26C135.371 173.26 140.239 178.123 140.239 178.123L147.729 175.879Z" fill="#191D23"/>
<path d="M189.484 29.0344C189.484 29.0344 181.994 20.0554 178.998 20.8036C176.003 21.5519 177.875 22.6742 177.875 22.6742L170.385 14.4435C170.385 14.4435 164.394 12.1987 158.776 19.3071C158.776 19.3071 155.406 13.3211 158.776 9.95397C162.147 6.58684 163.27 6.96097 164.019 5.09034C164.768 3.21972 170.011 1.72322 170.011 1.72322C170.011 1.72322 169.71 -0.969307 171.358 0.376952C173.007 1.72321 177.123 1.72322 177.123 1.72322C177.123 1.72322 177.147 0.226715 178.822 1.72322C180.496 3.21972 182.369 2.47147 182.369 2.47147C182.369 2.47147 182.369 5.06088 183.68 5.07561C184.99 5.09034 187.237 3.21972 187.612 4.71622C187.986 6.21272 190.608 6.96097 190.982 11.4505C191.357 15.94 189.484 29.0344 189.484 29.0344Z" fill="#191D23"/>
<path d="M128.447 66.9118L85.6668 96.4029C84.1905 97.4206 82.1608 97.0488 81.1421 95.5739L69.098 78.1364C68.0794 76.6616 68.4517 74.6338 69.9279 73.6161L112.708 44.125C114.184 43.1073 116.214 43.4791 117.232 44.954L129.277 62.3915C130.295 63.8663 129.923 65.8941 128.447 66.9118Z" fill="white"/>
<path d="M117.154 45.0083L129.198 62.4457C130.189 63.8805 129.828 65.8432 128.392 66.8332L107.397 81.3067C101.86 79.7951 96.8076 76.4001 93.293 71.3115C90.9908 67.9784 89.6031 64.2884 89.0739 60.5334L112.762 44.2036C114.198 43.2135 116.163 43.5735 117.154 45.0083V45.0083Z" fill="#E7EAEE"/>
<path d="M83.8249 97.3508C82.6718 97.3508 81.537 96.8042 80.8338 95.7867L68.7895 78.3489C68.2402 77.5532 68.034 76.5905 68.2091 75.6372C68.3839 74.684 68.919 73.8569 69.7155 73.3081L112.495 43.8169C114.142 42.6824 116.405 43.0975 117.541 44.7412L129.585 62.179C130.134 62.9747 130.34 63.9374 130.165 64.8906C129.99 65.8435 129.455 66.671 128.659 67.2198L85.8794 96.711C85.2519 97.1432 84.5347 97.3508 83.8249 97.3508ZM114.551 43.925C113.987 43.925 113.418 44.0898 112.921 44.4329L70.1408 73.9241C69.5089 74.3592 69.0846 75.0158 68.9457 75.7724C68.8067 76.5287 68.9702 77.293 69.4061 77.9236L81.4503 95.3614C82.3514 96.6657 84.1474 96.9956 85.4537 96.095L128.234 66.6038C128.866 66.1687 129.29 65.5121 129.429 64.7555C129.568 63.9992 129.404 63.2349 128.968 62.6042L116.924 45.1665C116.366 44.3591 115.466 43.925 114.551 43.925Z" fill="#323A46"/>
<path d="M84.1344 88.6441C83.0502 89.3915 82.7768 90.8808 83.5249 91.964C84.2731 93.0471 85.7638 93.3203 86.848 92.5728L91.2525 89.5366C92.3367 88.7891 92.6101 87.2998 91.862 86.2167C91.1138 85.1335 89.6231 84.8604 88.5389 85.6078L84.1344 88.6441Z" fill="#FBBF24"/>
<path d="M87.1198 64.3163C85.4092 65.4955 84.9779 67.8453 86.1583 69.5544C87.3387 71.2634 89.6906 71.6942 91.4013 70.515L98.2527 65.7918C99.9633 64.6126 100.395 62.2629 99.2143 60.5539C98.0339 58.8449 95.6819 58.4139 93.9712 59.5931L87.1198 64.3163Z" fill="#FBBF24"/>
<path d="M127.422 69.5157H75.4462C73.6526 69.5157 72.1934 68.058 72.1934 66.2661V45.08C72.1934 43.2882 73.6526 41.8304 75.4462 41.8304H127.422C129.216 41.8304 130.675 43.2882 130.675 45.08V66.2661C130.675 68.058 129.216 69.5157 127.422 69.5157Z" fill="white"/>
<path d="M130.579 45.0801V66.266C130.579 68.0092 129.167 69.4202 127.422 69.4202H101.914C98.2158 65.0345 95.9873 59.3733 95.9873 53.1909C95.9873 49.1413 96.9429 45.3168 98.642 41.9259H127.422C129.167 41.9259 130.579 43.3369 130.579 45.0801L130.579 45.0801Z" fill="#E7EAEE"/>
<path d="M127.422 69.8898H75.4462C73.4461 69.8898 71.8187 68.2643 71.8187 66.2662V45.0799C71.8187 43.0818 73.4461 41.4563 75.4462 41.4563H127.422C129.422 41.4563 131.05 43.0818 131.05 45.0799V66.2662C131.05 68.2643 129.422 69.8898 127.422 69.8898ZM75.4462 42.2046C73.859 42.2046 72.5677 43.4943 72.5677 45.0799V66.2662C72.5677 67.8519 73.859 69.1416 75.4462 69.1416H127.422C129.009 69.1416 130.301 67.8519 130.301 66.2662V45.0799C130.301 43.4943 129.009 42.2046 127.422 42.2046H75.4462Z" fill="#323A46"/>
<path d="M78.5958 62.2603C77.2785 62.2603 76.2068 63.3309 76.2068 64.6469C76.2068 65.9629 77.2785 67.0336 78.5958 67.0336H83.947C85.2643 67.0336 86.336 65.9629 86.336 64.6469C86.336 63.3309 85.2643 62.2603 83.947 62.2603H78.5958Z" fill="#FBBF24"/>
<path d="M94.8831 43.9307C92.8047 43.9307 91.1139 45.62 91.1139 47.6964C91.1139 49.7728 92.8047 51.4619 94.8831 51.4619H103.207C105.286 51.4619 106.977 49.7728 106.977 47.6964C106.977 45.62 105.286 43.9307 103.207 43.9307H94.8831Z" fill="#FBBF24"/>
<path d="M170.863 142.844H118.886C117.093 142.844 115.634 141.387 115.634 139.595V118.409C115.634 116.617 117.093 115.159 118.886 115.159H170.863C172.656 115.159 174.115 116.617 174.115 118.409V139.595C174.115 141.387 172.656 142.844 170.863 142.844Z" fill="white"/>
<path d="M174.02 118.409V139.595C174.02 141.338 172.607 142.749 170.863 142.749H145.354C141.656 138.363 139.428 132.702 139.428 126.52C139.428 122.47 140.383 118.645 142.082 115.255H170.863C172.607 115.255 174.02 116.666 174.02 118.409L174.02 118.409Z" fill="#E7EAEE"/>
<path d="M170.862 143.218H118.886C116.886 143.218 115.259 141.593 115.259 139.595V118.409C115.259 116.41 116.886 114.785 118.886 114.785H170.862C172.863 114.785 174.49 116.41 174.49 118.409V139.595C174.49 141.593 172.863 143.218 170.862 143.218ZM118.886 115.533C117.299 115.533 116.008 116.823 116.008 118.409V139.595C116.008 141.18 117.299 142.47 118.886 142.47H170.862C172.45 142.47 173.741 141.18 173.741 139.595V118.409C173.741 116.823 172.45 115.533 170.862 115.533H118.886Z" fill="#323A46"/>
<path d="M122.036 135.589C120.719 135.589 119.647 136.66 119.647 137.976C119.647 139.292 120.719 140.362 122.036 140.362H127.387C128.705 140.362 129.776 139.292 129.776 137.976C129.776 136.66 128.705 135.589 127.387 135.589H122.036Z" fill="#FBBF24"/>
<path d="M138.323 117.259C136.245 117.259 134.554 118.949 134.554 121.025C134.554 123.101 136.245 124.791 138.323 124.791H146.648C148.726 124.791 150.417 123.101 150.417 121.025C150.417 118.949 148.726 117.259 146.648 117.259H138.323Z" fill="#FBBF24"/>
<path d="M174.388 123.842C169.615 126.325 164.463 125.877 162.881 122.842C161.3 119.807 163.888 115.334 168.663 112.85C170.558 111.832 172.668 111.282 174.819 111.246L195.178 100.979L199.221 109.033L179.236 119.723C177.972 121.463 176.31 122.875 174.388 123.842Z" fill="#92400E"/>
<path d="M197.535 36.3298C197.535 36.3298 218.507 35.2074 223.001 46.4311C227.494 57.6549 231.239 94.3192 231.239 94.3192L185.552 119.151L177.688 107.039L208.396 83.0954L197.535 36.3298Z" fill="#323A46"/>
</g>
<defs>
<clipPath id="clip0_124_2276">
<rect width="274" height="206" fill="white"/>
</clipPath>
</defs>
</svg>
