<svg width="358" height="350" viewBox="0 0 358 350" fill="none" xmlns="http://www.w3.org/2000/svg">
<g clip-path="url(#clip0_132_1124)">
<path d="M110.552 256.752H65.7079C64.5774 256.752 63.6575 255.831 63.6575 254.699C63.6575 253.567 64.5774 252.646 65.7079 252.646H110.552C111.682 252.646 112.602 253.567 112.602 254.699C112.602 255.831 111.682 256.752 110.552 256.752H110.552Z" fill="#FBBF24"/>
<path d="M30.4629 267.741C30.4629 268.11 30.7587 268.406 31.127 268.406H145.132C145.501 268.406 145.796 268.11 145.796 267.741C145.796 267.372 145.501 267.076 145.132 267.076H31.127C30.7587 267.076 30.4629 267.372 30.4629 267.741Z" fill="#4B5768"/>
<path d="M270.996 133.768C291.029 133.768 307.27 117.507 307.27 97.4489C307.27 77.3904 291.029 61.1298 270.996 61.1298C250.963 61.1298 234.722 77.3904 234.722 97.4489C234.722 117.507 250.963 133.768 270.996 133.768Z" fill="#FDE68A"/>
<path d="M0 313.634C0 314.003 0.295786 314.299 0.66412 314.299H292.131C292.499 314.299 292.795 314.003 292.795 313.634C292.795 313.266 292.499 312.97 292.131 312.97H0.66412C0.295786 312.97 0 313.266 0 313.634Z" fill="#4B5768"/>
<path d="M4.21606 268.732L3.28369 267.709L94.2824 184.568L127.068 199.284L162.471 138.494L191.558 124.456L218.508 169.429C233.058 131.714 269.547 92.2549 313.271 52.2211L314.347 53.0931C273.338 92.404 238.251 131.893 218.339 171.84L193.411 130.119C192.234 128.148 189.759 127.387 187.679 128.356L187.679 128.356C171.78 135.763 158.518 147.854 149.667 163.012L127.49 200.991L122.428 198.719C105.498 191.12 85.6778 194.305 71.9725 206.827L4.21606 268.732Z" fill="#323A46"/>
<path d="M315.323 59.7903L313.941 59.8863L311.712 55.0489L306.721 54.0338L306.527 52.6608L314.754 51.4901L315.323 59.7903Z" fill="#323A46"/>
<path d="M173.379 89.3899L178.271 70.5613L197.327 69.6436L203.028 95.5981L173.379 89.3899Z" fill="#FECACA"/>
<path opacity="0.1" d="M173.379 89.3899L178.271 70.5613L197.327 69.6436L203.028 95.5981L173.379 89.3899Z" fill="black"/>
<path d="M185.918 81.0983C198.622 81.0983 208.919 70.7874 208.919 58.0684C208.919 45.3494 198.622 35.0386 185.918 35.0386C173.215 35.0386 162.917 45.3494 162.917 58.0684C162.917 70.7874 173.215 81.0983 185.918 81.0983Z" fill="#FECACA"/>
<path d="M198.609 62.9431H198.609C198.609 62.9431 189.871 45.6091 179.634 46.6099C169.396 47.6106 164.002 48.8277 164.002 48.8277C164.002 48.8277 160.963 35.3272 175.271 30.1342C175.271 30.1342 157.079 12.1792 178.738 3.3715C200.397 -5.43623 212.516 5.7969 212.516 5.7969C212.516 5.7969 228.548 21.8217 208.357 33.7988C208.357 33.7988 223.35 53.9915 205.197 70.6349C205.197 70.6349 209.257 57.1667 205.021 59.6505C200.784 62.1343 198.609 62.9431 198.609 62.9431V62.9431L198.609 62.9431L198.609 62.9431Z" fill="#323A46"/>
<path d="M160.541 184.619L157.481 187.555L135.378 235.008L132.959 313.497H170.095L187.515 274.628L199.252 313.122H232.643L240.384 243.244L219.576 193.825L160.541 184.619Z" fill="#323A46"/>
<path d="M199.011 87.4765H174.21L147.234 102.012L153.524 130.113C153.524 130.113 152.073 147.07 155.46 159.667C158.847 172.265 157.395 188.738 157.395 188.738L219.576 193.825L221.512 136.654L220.544 98.3778L199.011 87.4765V87.4765Z" fill="#E7EAEE"/>
<path d="M151.347 102.254C151.347 102.254 136.346 102.738 133.926 112.428C131.507 122.118 129.571 172.022 129.571 172.022C129.571 172.022 131.023 201.634 147.234 187.555C163.444 173.476 161.992 130.84 161.992 130.84L151.347 102.254Z" fill="#E7EAEE"/>
<path d="M296.845 349.441H208.444C205.45 349.441 203.014 347.003 203.014 344.005V252.504C203.014 249.506 205.45 247.068 208.444 247.068H296.845C299.839 247.068 302.275 249.506 302.275 252.504V344.005C302.275 347.003 299.839 349.441 296.845 349.441Z" fill="white"/>
<path d="M296.845 350H208.444C205.142 350 202.456 347.311 202.456 344.005V252.504C202.456 249.198 205.142 246.509 208.444 246.509H296.845C300.147 246.509 302.833 249.198 302.833 252.504V344.005C302.833 347.311 300.147 350 296.845 350ZM208.444 247.626C205.758 247.626 203.572 249.814 203.572 252.504V344.005C203.572 346.694 205.758 348.882 208.444 348.882H296.845C299.531 348.882 301.717 346.694 301.717 344.005V252.504C301.717 249.814 299.531 247.626 296.845 247.626H208.444Z" fill="#4B5768"/>
<path d="M256.133 325.403H248.847C247.96 325.403 247.238 324.845 247.238 324.16V292.751C247.238 292.066 247.96 291.508 248.847 291.508H256.133C257.02 291.508 257.742 292.066 257.742 292.751V324.16C257.742 324.845 257.02 325.403 256.133 325.403Z" fill="#FBBF24"/>
<path d="M232.045 306.894C231.328 306.894 230.745 307.344 230.745 307.898V324.125C230.745 324.679 231.328 325.129 232.045 325.129H239.331C240.048 325.129 240.631 324.679 240.631 324.125V307.898C240.631 307.344 240.048 306.894 239.331 306.894H232.045Z" fill="#FBBF24"/>
<path d="M272.935 325.403H265.649C264.762 325.403 264.041 324.845 264.041 324.16V272.687C264.041 272.001 264.762 271.443 265.649 271.443H272.935C273.822 271.443 274.544 272.001 274.544 272.687V324.16C274.544 324.845 273.822 325.403 272.935 325.403Z" fill="#FBBF24"/>
<path d="M116.145 99.7782H107.823C106.809 99.7782 105.985 99.1411 105.985 98.358V62.4804C105.985 61.6973 106.809 61.0602 107.823 61.0602H116.145C117.159 61.0602 117.983 61.6973 117.983 62.4804V98.358C117.983 99.1411 117.159 99.7782 116.145 99.7782V99.7782V99.7782Z" fill="#FBBF24"/>
<path d="M88.6296 78.6353C87.811 78.6353 87.1448 79.1501 87.1448 79.7828V98.3179C87.1448 98.9506 87.811 99.4654 88.6296 99.4654H96.9524C97.771 99.4654 98.4371 98.9506 98.4371 98.3179V79.7828C98.4371 79.1501 97.771 78.6353 96.9524 78.6353H88.6296Z" fill="#FBBF24"/>
<path d="M135.338 99.7782H127.015C126.002 99.7782 125.178 99.1411 125.178 98.3579V39.5611C125.178 38.778 126.002 38.1409 127.015 38.1409H135.338C136.352 38.1409 137.176 38.7779 137.176 39.5611V98.3579C137.176 99.1411 136.352 99.7782 135.338 99.7782V99.7782V99.7782Z" fill="#FBBF24"/>
<path d="M239.092 260.381C243.403 259.967 246.371 254.135 245.723 247.35C245.501 244.637 244.633 242.016 243.192 239.707L242.361 232.028L242.488 231.99L244.577 195.583C245.062 187.117 241.716 178.799 235.268 173.302C231.432 170.032 227.34 168.377 224.709 172.508C220.343 179.364 225.998 207.624 229.712 223.691L231.152 240.861C230.174 243.402 229.818 246.141 230.114 248.849C230.762 255.631 234.781 260.794 239.092 260.381V260.381Z" fill="#FECACA"/>
<path d="M215.221 99.3468C215.221 99.3468 227.802 94.5018 233.609 109.037C239.416 123.572 245.707 195.278 245.707 195.278L216.189 189.949L215.221 99.3468V99.3468V99.3468Z" fill="#E7EAEE"/>
<path d="M42.4635 92.2373H25.5225C24.3919 92.2373 23.472 91.3163 23.472 90.1843C23.472 89.0524 24.392 88.1317 25.5225 88.1317H42.4635C43.594 88.1317 44.5135 89.0523 44.5135 90.1843C44.5135 91.3163 43.594 92.2373 42.4635 92.2373Z" fill="#E7EAEE"/>
<path d="M42.4635 63.1378H25.5225C24.3919 63.1378 23.472 62.2167 23.472 61.0848C23.472 59.9528 24.392 59.0322 25.5225 59.0322H42.4635C43.594 59.0322 44.5135 59.9528 44.5135 61.0848C44.5135 62.2167 43.594 63.1378 42.4635 63.1378Z" fill="#E7EAEE"/>
<path d="M42.4635 42.1526H25.5225C24.3919 42.1526 23.472 41.2315 23.472 40.0995C23.472 38.9676 24.392 38.0469 25.5225 38.0469H42.4635C43.594 38.0469 44.5135 38.9676 44.5135 40.0995C44.5135 41.2315 43.594 42.1526 42.4635 42.1526Z" fill="#E7EAEE"/>
<path d="M22.7925 99.8797C22.7925 100.248 23.0883 100.545 23.4566 100.545H137.462C137.83 100.545 138.126 100.248 138.126 99.8797C138.126 99.5109 137.83 99.2148 137.462 99.2148H23.4566C23.0883 99.2148 22.7925 99.5109 22.7925 99.8797Z" fill="#4B5768"/>
<path d="M242.667 271.977C242.667 272.345 242.962 272.641 243.331 272.641H357.336C357.704 272.641 358 272.345 358 271.977C358 271.608 357.704 271.312 357.336 271.312H243.331C242.962 271.312 242.667 271.608 242.667 271.977Z" fill="#4B5768"/>
<path d="M209.183 326.176C209.183 326.545 209.479 326.841 209.847 326.841H323.853C324.221 326.841 324.517 326.545 324.517 326.176C324.517 325.807 324.221 325.511 323.853 325.511H209.847C209.479 325.511 209.183 325.807 209.183 326.176Z" fill="#4B5768"/>
<path d="M132.52 96.5182C128.209 96.9315 125.241 102.764 125.889 109.548C126.111 112.262 126.979 114.883 128.42 117.192L129.251 124.871L129.124 124.909L127.035 161.316C126.55 169.781 129.896 178.1 136.344 183.596C140.18 186.866 144.272 188.522 146.903 184.39C151.269 177.535 145.614 149.274 141.9 133.208L140.46 116.038C141.438 113.497 141.794 110.758 141.498 108.05C140.851 101.268 136.831 96.1049 132.52 96.5182H132.52V96.5182Z" fill="#FECACA"/>
</g>
<defs>
<clipPath id="clip0_132_1124">
<rect width="358" height="350" fill="white"/>
</clipPath>
</defs>
</svg>
