<svg width="204" height="246" viewBox="0 0 204 246" fill="none" xmlns="http://www.w3.org/2000/svg">
<g clip-path="url(#clip0_124_2481)">
<path d="M189.344 20.8247H28.4286C22.5256 20.8247 17.7256 25.6135 17.7256 31.5026V141.515C17.7256 147.404 22.5256 152.193 28.4286 152.193H189.344C195.247 152.193 200.047 147.404 200.047 141.515V31.5026C200.047 25.6135 195.247 20.8247 189.344 20.8247V20.8247Z" fill="#A0ABBB"/>
<path d="M171.886 29.2985H10.9706C5.06761 29.2985 0.267578 34.0872 0.267578 39.9763V149.989C0.267578 155.878 5.06761 160.667 10.9706 160.667H171.886C177.789 160.667 182.589 155.878 182.589 149.989V39.9763C182.589 34.0872 177.789 29.2985 171.886 29.2985ZM181.464 117.609C181.464 140.769 162.645 159.544 139.431 159.544H10.9706C5.68103 159.544 1.39302 155.266 1.39302 149.989V39.9763C1.39302 34.6992 5.68101 30.4213 10.9705 30.4213H171.886C177.176 30.4213 181.464 34.6992 181.464 39.9764V117.609Z" fill="#323A46"/>
<path d="M23.2526 136.825L22.3003 136.227C22.9193 135.246 23.5582 134.294 24.1984 133.399L25.1145 134.052C24.4866 134.929 23.8604 135.862 23.2526 136.825H23.2526Z" fill="#D0D5DD"/>
<path d="M29.4582 128.824L28.6526 128.04C30.3699 126.284 32.1773 124.777 34.0243 123.56L34.6447 124.497C32.8645 125.669 31.1194 127.125 29.4582 128.824V128.824ZM57.5355 121.737C56.1916 121.737 54.9672 121.565 54.0506 121.415L54.2325 120.307C55.1612 120.459 56.2798 120.614 57.5355 120.614C58.6444 120.614 59.7344 120.492 60.8676 120.242L61.1105 121.339C59.8965 121.606 58.7271 121.737 57.5355 121.737V121.737ZM40.6953 121.588L40.3568 120.517C41.5658 120.137 42.8182 119.852 44.0791 119.669C45.1619 119.513 46.1973 119.437 47.2438 119.437H47.3131V120.56H47.2438C46.2517 120.56 45.2694 120.632 44.2404 120.781C43.0394 120.954 41.8463 121.226 40.6953 121.588H40.6953ZM67.521 118.343L66.8017 117.48C68.3547 116.193 69.4678 114.637 70.6465 112.989L71.1166 112.333L72.03 112.99L71.5626 113.641C70.3404 115.35 69.1859 116.964 67.521 118.343V118.343ZM76.5466 108.048L75.8542 107.163C77.3711 105.982 79.0851 105.025 81.0937 104.237C81.4358 104.103 81.7627 103.983 82.0765 103.877L82.4398 104.939C82.1414 105.041 81.8309 105.155 81.5056 105.282C79.599 106.03 77.977 106.935 76.5466 108.048ZM90.1335 104.148C89.7549 104.148 89.3957 104.145 89.0506 104.141L89.0638 103.018C89.4166 103.022 89.7848 103.023 90.1744 103.026C91.4988 103.026 93.3433 102.988 95.8734 102.696L96.0031 103.811C93.3895 104.113 91.5159 104.145 90.1335 104.148ZM102.849 102.678L102.626 101.578C104.647 101.17 106.999 100.684 109.327 100.085L109.608 101.172C107.254 101.778 104.885 102.267 102.849 102.678ZM116.238 99.0437L115.817 98.0023C118.074 97.0947 120.033 96.0711 121.807 94.8726L122.438 95.8025C120.597 97.0459 118.569 98.1062 116.238 99.0437ZM127.609 91.0207L126.696 90.3644C127.01 89.9297 127.281 89.5056 127.544 89.0955C128.319 87.885 129.12 86.6331 131.028 85.0963L131.162 84.9897L131.859 85.8707L131.735 85.9697C129.97 87.3918 129.252 88.513 128.492 89.6999C128.222 90.1229 127.941 90.5604 127.609 91.0207ZM137.705 82.5996L137.295 81.5541C139.301 80.7696 141.566 80.1383 144.028 79.6775L144.236 80.7811C141.843 81.229 139.646 81.8409 137.705 82.5996V82.5996Z" fill="white"/>
<path d="M151.115 79.9566L151.045 78.836C152.138 78.7677 153.282 78.7227 154.443 78.7019L154.464 79.8247C153.319 79.845 152.192 79.8894 151.115 79.9566Z" fill="white"/>
<path d="M35.8024 41.4647H20.0123C19.2189 41.4647 18.5718 42.1103 18.5718 42.9019C18.5718 43.6991 19.2189 44.3447 20.0123 44.3447H35.8024C36.5958 44.3447 37.2429 43.6991 37.2429 42.9019C37.2429 42.1104 36.5958 41.4647 35.8024 41.4647Z" fill="white"/>
<path d="M62.2503 41.4647H46.4603C45.6669 41.4647 45.0198 42.1103 45.0198 42.9019C45.0198 43.6991 45.6669 44.3447 46.4603 44.3447H62.2503C63.0438 44.3447 63.6909 43.6991 63.6909 42.9019C63.6909 42.1104 63.0438 41.4647 62.2503 41.4647Z" fill="white"/>
<path d="M88.6981 41.4647H72.9081C72.1147 41.4647 71.4675 42.1103 71.4675 42.9019C71.4675 43.6991 72.1147 44.3447 72.9081 44.3447H88.6981C89.4915 44.3447 90.1387 43.6991 90.1387 42.9019C90.1387 42.1104 89.4915 41.4647 88.6981 41.4647Z" fill="white"/>
<path d="M162.05 135.965H18.5559V137.088H162.05V135.965Z" fill="white"/>
<path d="M154.47 54.0002C144.257 54.2641 136.637 57.262 131.809 62.8985C130.025 64.9869 129.3 66.6318 128.534 68.3721C127.775 70.09 126.998 71.8585 125.192 74.1658V72.257C126.311 70.6178 126.914 69.2479 127.504 67.9174C128.304 66.0985 129.063 64.3806 130.954 62.1743C135.996 56.2795 143.897 53.1525 154.436 52.8774L154.47 54.0002V54.0002Z" fill="white"/>
<path d="M128.534 68.3721C127.775 70.09 126.998 71.8584 125.192 74.1658C124.978 74.4409 124.747 74.7272 124.499 75.0248C117.983 82.7552 109.278 85.2928 102.278 87.3363C101.839 87.4654 101.411 87.5833 100.995 87.6956C94.7709 89.3798 91.3608 89.318 88.8229 89.2787C86.2738 89.2338 84.5912 89.2058 81.5807 90.9236C76.0604 94.0619 73.7982 98.6542 71.6093 103.095C69.3527 107.665 67.2256 111.982 61.801 114.009C58.0364 115.412 55.3916 114.716 52.5949 113.986C50.192 113.352 45.8615 97.7369 42.027 95.4598C34.1095 97.1159 29.2982 122.929 23.2939 136.751L22.2585 136.302C28.4204 122.132 33.4961 96.0998 41.7906 94.3595C45.4877 93.5847 50.3552 112.235 52.8819 112.897C55.5041 113.588 57.9745 114.233 61.4071 112.953C66.4153 111.089 68.3511 107.154 70.5963 102.601C72.7572 98.2219 75.205 93.2591 81.0179 89.9468C84.2986 88.0774 86.2062 88.111 88.8398 88.1559C91.3495 88.2009 94.7371 88.257 100.995 86.5335C101.31 86.4437 101.63 86.3539 101.962 86.2584C108.816 84.2598 117.342 81.7728 123.633 74.3061C124.252 73.5707 124.764 72.8914 125.192 72.257C126.311 70.6177 126.914 69.2479 127.504 67.9174C128.303 66.0984 129.299 66.6318 128.534 68.3721V68.3721Z" fill="#991B1B"/>
<path d="M68.5258 196.81C68.0803 195.263 67.3175 193.943 66.4093 193.001L63.1097 177.995L55.9175 179.753L60.039 194.786C59.7679 196.058 59.8222 197.576 60.2676 199.124C61.2852 202.659 63.9588 205.007 66.2393 204.368C68.5197 203.729 69.5434 200.345 68.5258 196.81L68.5258 196.81Z" fill="#FCA5A5"/>
<path d="M67.5308 98.3731C67.5308 98.3731 56.1727 98.1411 53.2846 106.393C50.6558 113.904 47.5395 134.539 49.2242 135.732L56.3947 186.53L66.6199 185.129L63.9956 124.178L67.5308 98.3731Z" fill="#FBBF24"/>
<path d="M120.127 192.667L118.113 246H91.3834L90.303 222.101L85.5537 246H56.9055L60.4788 204.917L64.1702 196.277L66.6687 190.421L120.127 192.667Z" fill="black"/>
<path d="M98.7438 88.2459L80.174 87.123L73.9841 94.9827L60.4788 100.035L66.6687 160.105L63.8551 196.035C63.8551 196.035 103.246 227.474 120.127 192.667L115.625 150.562L116.751 101.72L103.808 96.1055L98.7438 88.2459Z" fill="#FBBF24"/>
<path d="M134.494 74.5819C134.695 76.5283 134.439 78.3586 133.85 79.8262L136.944 98.2469L128.115 99.459L125.927 80.6425C125.05 79.3261 124.424 77.5865 124.223 75.6401C123.763 71.1937 125.689 67.3522 128.525 67.06C131.361 66.7678 134.033 70.1354 134.494 74.5819V74.5819H134.494Z" fill="#FCA5A5"/>
<path d="M119.115 103.829C116.072 98.6386 108.522 98.1493 105.14 103.127C104.216 104.488 104.474 106.017 104.253 107.855C103.316 115.656 118.301 138.709 128.669 141.364C130.03 141.712 130.805 143.176 132.178 143.471H132.179C136.247 144.343 140.035 141.122 139.815 136.976L136.998 83.8066L125.166 87.833L125.923 115.438L119.115 103.829L119.115 103.829Z" fill="#FBBF24"/>
<path d="M91.3859 85.6701C100.42 85.6701 107.743 78.364 107.743 69.3514C107.743 60.3389 100.42 53.0327 91.3859 53.0327C82.3521 53.0327 75.0288 60.3389 75.0288 69.3514C75.0288 78.364 82.3521 85.6701 91.3859 85.6701Z" fill="#FCA5A5"/>
<path d="M106.622 57.3686C106.481 57.4023 108.775 55.1718 108.873 55.123C111.124 54.0002 108.811 64.9756 107.184 64.6668C103.184 63.9089 101.456 62.4044 99.9029 66.1602C99.4696 67.2044 99.1995 68.3833 98.3554 69.13C97.1962 70.1462 95.2717 70.0619 94.3263 71.2745C93.5666 72.2514 93.7861 73.6886 94.3488 74.7889C94.9115 75.8949 95.7669 76.8324 96.2789 77.9609C96.8529 79.2296 94.4051 83.2661 93.471 85.5342V85.5398L93.4654 85.5531C93.2172 86.148 92.6274 84.4343 92.0046 84.2632C91.2595 84.0585 90.1617 85.8139 88.9748 85.4949C88.9692 85.4949 88.9636 85.4893 88.9579 85.4893C87.8268 85.1749 86.5664 84.8381 85.3171 84.5012H85.3115C81.7945 83.5468 80.9054 84.9166 80.7366 84.8773L78.5532 82.5981C77.8039 82.0538 77.8886 80.2966 77.3602 79.8247C76.9281 79.4388 75.8509 80.3306 75.5334 79.9596C73.9767 78.1407 73.6186 76.3211 72.7009 72.7286C71.8624 69.4444 70.1236 59.6142 73.6969 59.1707C77.0676 58.7496 74.6029 54.0676 77.9961 54.2416C77.7935 53.3882 78.1706 52.4732 78.7839 51.8444C79.3917 51.21 80.202 50.817 81.0179 50.4802C85.0414 48.8409 84.3718 47.4318 88.6147 48.3862C89.0367 47.7967 95.1647 48.1897 95.93 48.3862C95.9863 48.3974 94.0337 48.8634 97.0555 48.3862C96.9429 49.0767 98.8562 49.3799 98.7437 50.0704C99.1657 49.5034 103.701 52.7595 103.808 53.4388C103.949 54.2865 102.666 53.8542 103.521 53.9833C104.028 54.0619 104.894 55.0893 104.81 55.6002C105.176 55.1061 105.541 54.6177 105.913 54.1237C105.98 54.1293 106.042 54.1405 106.11 54.1517C107.82 54.4774 105.859 60.0566 105.93 58.3174C106.059 55.123 108.327 56.9925 106.622 57.3686Z" fill="#191D23"/>
<path d="M169.286 144.224C169.412 144.534 169.847 144.534 169.973 144.224C170.852 142.063 172.103 139.643 173.464 137.793C173.681 137.497 173.381 137.102 173.035 137.227L170.118 138.279V120.266H169.142V138.279L166.224 137.226C165.878 137.101 165.577 137.497 165.795 137.793C167.156 139.643 168.407 142.063 169.286 144.224Z" fill="black"/>
<path d="M188.414 162.771C188.319 163.092 188.66 163.362 188.952 163.198C190.987 162.05 193.475 160.931 195.694 160.327C196.049 160.231 196.06 159.734 195.711 159.617L192.771 158.632L204 144.526L203.235 143.92L192.006 158.026L190.378 155.391C190.185 155.079 189.703 155.202 189.689 155.569C189.601 157.862 189.072 160.534 188.414 162.771Z" fill="#323A46"/>
<path d="M179.279 174.792H160.303C159.125 174.792 158.167 173.836 158.167 172.661C155.658 165.345 155.707 158.176 158.167 151.146C158.167 149.971 159.125 149.014 160.303 149.014H179.279C180.457 149.014 181.416 149.971 181.416 151.146V172.661C181.416 173.836 180.457 174.792 179.279 174.792Z" fill="black"/>
<path d="M164.369 149.65C161.295 149.65 158.803 152.136 158.803 155.202V172.204C158.803 173.283 159.68 174.157 160.761 174.157H171.254C176.515 174.157 180.779 169.903 180.779 164.655V151.603C180.779 150.524 179.903 149.65 178.821 149.65H164.369Z" fill="white"/>
<path d="M174.21 155.902H165.326C165.102 155.902 164.92 155.72 164.92 155.496C164.92 155.273 165.102 155.091 165.326 155.091H174.21C174.434 155.091 174.616 155.273 174.616 155.496C174.616 155.72 174.434 155.902 174.21 155.902Z" fill="black"/>
<path d="M174.21 164.543H165.326C165.102 164.543 164.92 164.361 164.92 164.138C164.92 163.914 165.102 163.733 165.326 163.733H174.21C174.434 163.733 174.616 163.914 174.616 164.138C174.616 164.361 174.434 164.543 174.21 164.543Z" fill="black"/>
<path d="M178.978 160.225H160.559C160.335 160.225 160.153 160.043 160.153 159.82C160.153 159.597 160.335 159.415 160.559 159.415H178.978C179.202 159.415 179.384 159.597 179.384 159.82C179.384 160.043 179.202 160.225 178.978 160.225Z" fill="black"/>
<path d="M179.195 168.057H171.509C171.285 168.057 171.103 167.875 171.103 167.652C171.103 167.428 171.285 167.246 171.509 167.246H179.195C179.419 167.246 179.601 167.428 179.601 167.652C179.601 167.875 179.419 168.057 179.195 168.057Z" fill="black"/>
<path d="M7.01336 13.8793C10.8867 13.8793 14.0267 10.8127 14.0267 7.0298C14.0267 3.24692 10.8867 0.180298 7.01336 0.180298C3.13999 0.180298 0 3.24692 0 7.0298C0 10.8127 3.13999 13.8793 7.01336 13.8793Z" fill="#F59E0B"/>
<path d="M63.2366 4.6865H25.4865C24.1914 4.6865 23.1377 3.63528 23.1377 2.34325C23.1377 1.05122 24.1914 0 25.4865 0H63.2366C64.5317 0 65.5854 1.05122 65.5854 2.34325C65.5854 3.63528 64.5317 4.6865 63.2366 4.6865Z" fill="#A0ABBB"/>
<path d="M92.697 12.6175H25.4865C24.1914 12.6175 23.1377 11.5663 23.1377 10.2743C23.1377 8.98225 24.1914 7.93103 25.4865 7.93103H92.697C93.992 7.93103 95.0457 8.98225 95.0457 10.2743C95.0457 11.5663 93.992 12.6175 92.697 12.6175Z" fill="#A0ABBB"/>
</g>
<defs>
<clipPath id="clip0_124_2481">
<rect width="204" height="246" fill="white"/>
</clipPath>
</defs>
</svg>
